<?xml version="1.0" encoding="UTF-8"?>
<svg width="385" height="1144" viewBox="0 0 385 1144" xmlns="http://www.w3.org/2000/svg" xmlns:xlink="http://www.w3.org/1999/xlink"><svg width="154" height="80" viewBox="0 0 154 80" id="general--gemeentelogo"><g fill="none"><path d="M22.283 31.1h7.603l-1.382 9.273c-15.35 7.397-21.863-8.15-21.326-15.61H0c.452 8.605 3.476 14.742 7.65 18.717a42.92 42.92 0 0 0 1.567 1.35c7.85 6.12 18.778 5.572 24.91.04l3-20.108H23.23l-.947 6.337zm26.95-6.498c-.377-.113-.766-.113-1.13-.113-2.24 0-4.1 2.296-4.46 3.66h-.057l.466-3.32H40.72l-2.047 14.613h3.75l.753-5.365c.294-2.1.834-5.96 3.884-5.96.673 0 1.328.114 1.637.312l.537-3.83zm8.16-.113c-4.255 0-7.936 2.92-8.614 7.745-.59 4.2 1.71 7.546 6.47 7.546 4.785 0 8.026-3.346 8.614-7.545.676-4.824-2.19-7.747-6.473-7.747zm2.617 7.29c-.342 2.44-1.462 5.053-4.346 5.053-2.855 0-3.242-2.642-2.903-5.054.308-2.184 1.787-4.34 4.22-4.34 2.463 0 3.346 2.1 3.03 4.34zm15.94-7.29c-1.96 0-3.647.65-5.056 2.325h-.056l.277-1.987H67.56l-2.048 14.614h3.75l1.004-7.152c.263-1.873 1.267-4.85 3.983-4.85 2.404 0 2.094 2.41 1.844 4.198L75 39.444h3.752l1.292-9.225c.46-3.29-.68-5.73-4.095-5.73zm8.088 3.39l-1.62 11.563h3.75l1.242-8.87c-1.04-.927-2.34-1.915-3.372-2.695z" fill="#E60004"/><path d="M40.862 5.36l.288-1.938C30.295-.988 21.544-1.07 15.14 3.205 9.31 7.1 6.93 13.882 6.678 17.728H8.59c.26-3.098 2.25-9.354 7.605-12.933 5.93-3.96 14.23-3.766 24.667.566zm55.845 37.502c7.408 10.543 9.382 20.356 5.41 26.942-2.138 3.542-5.81 5.974-10.91 7.235-12.868 3.173-32.06-1.648-50.082-12.587-7.24-4.393-14.244-10.514-17.77-13.767a20.78 20.78 0 0 1-2.942-.144c2.505 2.395 10.934 10.208 19.726 15.543 18.44 11.19 38.18 16.097 51.52 12.807 5.53-1.364 9.71-4.165 12.085-8.104 4.237-7.025 2.492-17.146-4.74-27.928h-2.3zm2.615-3.418h3.75l1.294-9.225c.46-3.29-.68-5.73-4.095-5.73-1.96 0-3.645.65-5.055 2.325h-.055l.276-1.987h-3.554l-2.046 14.614h3.748l1.002-7.152c.263-1.873 1.27-4.85 3.984-4.85 2.407 0 2.096 2.41 1.844 4.198l-1.092 7.804zm18.758-12.628h-.056c-.8-1.674-2.192-2.327-4.095-2.327-4.315 0-6.67 4.055-7.166 7.574-.55 3.915.588 7.38 4.844 7.38 2.096 0 3.93-1.08 4.803-2.33h.057c-.355 2.53-.992 5.677-5.135 5.677-1.176 0-2.96-.652-4.02-1.28l-.76 3.237c1.683.768 3.358.994 4.842.994 6.044 0 8.137-3.745 8.695-7.715l1.85-13.197h-3.583l-.28 1.986zm-.892 5.164c-.34 2.44-1.584 4.512-3.936 4.512-2.154 0-2.847-2.44-2.57-4.427.314-2.24 1.46-4.624 4.008-4.624 2.184 0 2.85 2.045 2.498 4.54zm14.147-7.49c-4.477 0-7.178 3.49-7.772 7.716-.673 4.795 1.71 7.576 6.47 7.576 2.014 0 3.636-.397 5.117-1.16l.433-3.096c-1.51.796-3.174 1.475-4.994 1.475-2.323 0-3.76-1.33-3.598-3.685h9.964c.714-5.108-.274-8.825-5.622-8.825zm2.406 6.215h-6.38c.44-1.96 1.71-3.436 3.81-3.436s2.717 1.59 2.57 3.434zm15.45-6.216c-1.956 0-3.642.65-5.055 2.325h-.054l.28-1.987h-3.555l-2.048 14.614h3.75l1.002-7.152c.263-1.873 1.266-4.85 3.982-4.85 2.408 0 2.1 2.41 1.847 4.198l-1.094 7.804h3.75l1.292-9.225c.462-3.29-.68-5.73-4.095-5.73zM48.05 17.38c1.858 0 3.028-.312 3.707-.537l.88-6.277h-4.212l-.2 1.417h2.506l-.51 3.666c-.44.085-.76.206-1.94.206-2.473 0-4.22-1.885-3.824-4.72.378-2.698 2.488-4.72 5.232-4.72 1.536 0 2.4.277 3.16.83l.38-1.748c-.94-.345-1.673-.605-3.413-.605-3.63 0-6.638 2.472-7.16 6.19-.538 3.838 1.627 6.295 5.395 6.295zm51.454-4.29c.3-2.143 1.327-3.63 3.153-3.63 1.386.087 1.69 1.09 1.4 3.147l-.64 4.565h1.603l.735-5.24c.333-2.37-.476-3.788-2.727-3.788-1.21 0-2.455.607-3.074 1.61h-.034l.197-1.4h-1.552l-1.237 8.818h1.605l.57-4.08zm9.12 1.73c-.247 1.763.664 2.56 2.32 2.56.512 0 1.025-.14 1.396-.243l.195-1.383c-.26.156-.64.31-1.135.31-.733 0-1.27-.552-1.126-1.572l.676-4.824h2.302l.184-1.314h-2.302l.357-2.56-1.673.518-.285 2.042h-1.962l-.182 1.314h1.96l-.72 5.15zM91.91 17.38c1.433 0 2.18-.347 2.826-.57l.228-1.626c-.438.328-1.743.88-2.8.88-1.518 0-2.698-1.192-2.453-2.94h6.21c.397-2.834-.24-4.98-3.14-4.98-2.456 0-4.335 1.85-4.702 4.463-.4 2.87.747 4.773 3.833 4.773zm.652-7.92c1.38 0 2.01 1.106 1.82 2.455H89.88c.28-1.14 1.11-2.455 2.682-2.455zM82.6 17.38c1.432 0 2.18-.347 2.826-.57l.227-1.626c-.438.328-1.743.88-2.8.88-1.52 0-2.7-1.192-2.455-2.94h6.208c.397-2.834-.238-4.98-3.14-4.98-2.455 0-4.333 1.85-4.7 4.463-.402 2.87.747 4.773 3.833 4.773zm.65-7.92c1.38 0 2.01 1.106 1.82 2.455h-4.5c.28-1.14 1.112-2.455 2.68-2.455zM58.3 17.38c1.43 0 2.178-.347 2.823-.57l.228-1.626c-.436.328-1.74.88-2.8.88-1.517 0-2.696-1.192-2.45-2.94h6.206c.398-2.834-.24-4.98-3.14-4.98-2.455 0-4.334 1.85-4.7 4.463-.403 2.87.746 4.773 3.834 4.773zm.647-7.92c1.38 0 2.01 1.106 1.822 2.455h-4.505c.28-1.14 1.112-2.455 2.68-2.455zm6.978 3.266c.23-1.64 1.106-3.266 2.743-3.266 1.296 0 1.36 1.366 1.208 2.455l-.736 5.257h1.602l.624-4.446c.23-1.64 1.104-3.266 2.74-3.266 1.3 0 1.362 1.366 1.21 2.455l-.736 5.257h1.603l.792-5.654c.27-1.92-.33-3.374-2.546-3.374-.787 0-2.16.45-2.937 1.713-.292-1.193-1.227-1.713-2.234-1.713-1.278 0-2.214.467-2.97 1.488h-.035l.18-1.278h-1.502L63.7 17.172h1.6l.623-4.446zm52.878-4.582c-2.456 0-4.336 1.85-4.702 4.463-.4 2.87.75 4.773 3.837 4.773 1.432 0 2.18-.347 2.824-.57l.23-1.626c-.44.328-1.745.88-2.8.88-1.52 0-2.7-1.192-2.455-2.94h6.208c.398-2.834-.24-4.98-3.14-4.98zm1.603 3.77h-4.5c.277-1.14 1.11-2.454 2.68-2.454 1.38 0 2.01 1.106 1.82 2.455zM84.038 27.88c1.033.78 2.33 1.767 3.372 2.695l.806-5.746h-3.75l-.428 3.05z" fill="#060403"/></g></svg><svg width="77" height="48" viewBox="0 0 77 48" id="general--gemeentelogo-small" y="80"><g fill="none"><path d="M11.14 15.548h3.802l-.69 4.637C6.576 23.883 3.32 16.11 3.588 12.38H0c.226 4.303 1.738 7.37 3.825 9.36.336.307.783.674.783.674 3.925 3.06 9.388 2.785 12.455.02l1.5-10.054h-6.95l-.472 3.168zM24.616 12.3c-.188-.056-.383-.056-.565-.056-1.12 0-2.05 1.148-2.23 1.83h-.027l.232-1.66H20.36l-1.024 7.307h1.875l.378-2.68c.147-1.05.417-2.98 1.942-2.98.335 0 .662.057.817.156l.268-1.915zm4.08-.056c-2.128 0-3.968 1.46-4.307 3.873-.295 2.1.855 3.773 3.234 3.773 2.393 0 4.013-1.674 4.307-3.773.34-2.412-1.093-3.873-3.235-3.873zm1.308 3.645c-.17 1.22-.73 2.525-2.173 2.525-1.426 0-1.62-1.32-1.45-2.527.153-1.092.89-2.17 2.11-2.17 1.23 0 1.672 1.05 1.514 2.17zm7.97-3.647c-.98 0-1.824.326-2.528 1.163h-.028l.138-.993H33.78l-1.025 7.307h1.875l.5-3.575c.132-.936.634-2.425 1.992-2.425 1.203 0 1.048 1.206.923 2.1l-.548 3.9h1.877l.645-4.61c.23-1.646-.34-2.866-2.05-2.866zm4.043 1.694l-.81 5.783h1.875l.622-4.434c-.52-.464-1.17-.958-1.686-1.348z" fill="#E60004"/><path d="M20.43 2.68l.143-.97C15.146-.494 10.77-.534 7.57 1.604 4.653 3.55 3.464 6.94 3.34 8.864h.955c.13-1.55 1.124-4.677 3.802-6.467C11.06.417 15.21.514 20.43 2.68zm27.92 18.75c3.704 5.27 4.69 10.177 2.705 13.47-1.07 1.77-2.905 2.986-5.455 3.617-6.433 1.588-16.028-.823-25.04-6.292-3.618-2.196-7.12-5.257-8.884-6.883-.486.012-.978-.014-1.47-.072 1.252 1.197 5.466 5.104 9.862 7.77 9.22 5.595 19.09 8.05 25.76 6.404 2.765-.682 4.854-2.083 6.042-4.052 2.118-3.51 1.245-8.572-2.37-13.963h-1.15zm1.308-1.71h1.874l.648-4.61c.23-1.646-.34-2.866-2.048-2.866-.98 0-1.823.326-2.528 1.163h-.028l.14-.993h-1.778l-1.023 7.307h1.874l.5-3.574c.13-.936.633-2.425 1.99-2.425 1.204 0 1.05 1.207.923 2.1l-.546 3.9zm9.378-6.313h-.028c-.4-.837-1.096-1.163-2.047-1.163-2.154 0-3.333 2.028-3.58 3.788-.274 1.957.294 3.69 2.42 3.69 1.05 0 1.967-.54 2.404-1.165h.028c-.176 1.264-.495 2.837-2.566 2.837-.588 0-1.48-.326-2.01-.64l-.38 1.618c.84.384 1.68.498 2.42.498 3.022 0 4.07-1.873 4.348-3.858l.924-6.598h-1.79l-.14.993zm-.446 2.582c-.17 1.22-.792 2.254-1.968 2.254-1.076 0-1.423-1.22-1.285-2.213.157-1.12.73-2.31 2.004-2.31 1.094 0 1.427 1.02 1.25 2.27zm7.073-3.747c-2.238 0-3.588 1.745-3.885 3.858-.337 2.398.855 3.79 3.234 3.79 1.007 0 1.818-.2 2.558-.58l.217-1.55c-.756.4-1.587.738-2.497.738-1.16 0-1.878-.666-1.798-1.844h4.982c.357-2.554-.137-4.412-2.81-4.412zm1.203 3.107h-3.19c.22-.978.855-1.716 1.905-1.716s1.36.795 1.287 1.717zm7.725-3.106c-.977 0-1.82.326-2.527 1.163h-.027l.14-.993h-1.778l-1.024 7.307h1.876l.5-3.574c.13-.936.633-2.425 1.99-2.425 1.204 0 1.05 1.207.923 2.1l-.546 3.9h1.875l.646-4.61c.23-1.645-.34-2.865-2.047-2.865zM24.025 8.69c.93 0 1.514-.156 1.854-.27l.44-3.138H24.21l-.1.71h1.254l-.257 1.832c-.22.043-.38.104-.97.104-1.236 0-2.11-.942-1.91-2.36.188-1.35 1.243-2.36 2.615-2.36.768 0 1.2.14 1.58.415l.19-.873c-.47-.173-.837-.303-1.707-.303-1.815 0-3.318 1.236-3.58 3.095-.268 1.92.814 3.147 2.698 3.147zM49.75 6.544c.15-1.072.662-1.815 1.575-1.815.693.042.845.543.7 1.572l-.32 2.283h.802l.367-2.62c.166-1.185-.238-1.894-1.363-1.894-.603 0-1.226.304-1.535.805h-.017l.098-.7h-.776l-.62 4.41h.803l.286-2.04zm4.56.864c-.125.88.33 1.28 1.158 1.28.256 0 .513-.07.7-.122l.096-.69c-.13.076-.32.154-.568.154-.366 0-.634-.276-.563-.787l.338-2.412h1.153l.092-.655h-1.15l.178-1.28-.838.26-.142 1.02h-.98l-.093.656h.98l-.36 2.577zM45.95 8.69c.716 0 1.09-.174 1.413-.286l.114-.813c-.22.167-.873.443-1.4.443-.76 0-1.35-.597-1.228-1.47h3.103c.2-1.418-.12-2.49-1.57-2.49-1.227 0-2.167.925-2.35 2.23-.2 1.436.373 2.387 1.916 2.387zm.326-3.96c.69 0 1.004.552.91 1.227h-2.25c.14-.57.555-1.227 1.34-1.227zm-4.98 3.96c.715 0 1.09-.174 1.412-.286l.114-.813c-.22.167-.872.443-1.4.443-.76 0-1.35-.597-1.228-1.47H43.3c.2-1.418-.12-2.49-1.57-2.49-1.227 0-2.166.925-2.35 2.23-.2 1.436.374 2.387 1.917 2.387zm.324-3.96c.69 0 1.004.552.91 1.227h-2.25c.14-.57.556-1.227 1.34-1.227zM29.147 8.69c.716 0 1.09-.174 1.413-.286l.113-.813c-.218.167-.87.443-1.4.443-.76 0-1.348-.597-1.226-1.47h3.104c.2-1.418-.12-2.49-1.57-2.49-1.226 0-2.165.925-2.35 2.23-.2 1.436.375 2.387 1.918 2.387zm.325-3.96c.69 0 1.005.552.91 1.227h-2.25c.14-.57.555-1.227 1.34-1.227zm3.488 1.633c.115-.82.553-1.633 1.372-1.633.648 0 .68.683.604 1.227l-.368 2.63h.8l.312-2.224c.116-.82.553-1.633 1.37-1.633.65 0 .682.683.606 1.227l-.368 2.63h.8l.397-2.828c.134-.96-.165-1.69-1.273-1.69-.392 0-1.08.226-1.467.857-.146-.596-.614-.856-1.117-.856-.64 0-1.107.234-1.485.745h-.017l.09-.64h-.75l-.62 4.41h.803l.31-2.223zm26.438-2.29c-1.228 0-2.168.924-2.35 2.23-.202 1.435.372 2.386 1.916 2.386.716 0 1.09-.175 1.412-.287l.115-.813c-.217.166-.87.442-1.4.442-.76 0-1.35-.597-1.226-1.47h3.104c.2-1.418-.12-2.49-1.57-2.49zm.8 1.884h-2.25c.14-.57.556-1.227 1.34-1.227.69 0 1.006.552.91 1.227zm-18.182 7.98c.517.39 1.166.885 1.686 1.35l.403-2.873H42.23l-.214 1.524z" fill="#060403"/></g></svg><svg width="385" height="47" viewBox="0 0 385 47" id="general--skyline" y="128"><g fill="none"><g fill="#A2AFB7" fill-opacity=".3"><path d="M147.41 3.564a1.28 1.28 0 1 0 0-2.565 1.28 1.28 0 0 0 0 2.565M152.112 47.16h-10.274V35.044h.958V22.55h1.132V12.19h1.306V7.162h1.044V4.42h2.264v2.74h1.045v5.028h1.306v10.36h1.132v9.224h19.318V47.16h-19.23z"/></g><path d="M119.178 35.41v-4.745h.34l.428-2.107.083.82c.107-.036.372-.255.51-1.523.173-1.62.21-2.87.21-2.87s-.05-.49.545-1.254l.256-4.65c.113 0 .3-.205.354-.27.214-.263.254-.593.293-.903.045-.36.08-.717.088-1.077.002-.074 0-.806-.012-.806l-.02-.256s.668-.193.52-.85h.28s.374-.748.087-1.26h.07s-.07-.32.28-.542l-.14-.328.297-.038.296.038-.14.328c.35.222.28.542.28.542h.07c-.29.512.087 1.26.087 1.26h.28c-.15.657.52.85.52.85l-.02.256c-.013 0-.014.732-.013.805.01.36.043.716.088 1.075.04.31.078.64.293.9.055.068.242.272.353.272l.26 4.653c.593.765.546 1.254.546 1.254s.035 1.252.21 2.87c.136 1.27.4 1.488.51 1.523l.083-.82.426 2.108h.48V47.16h-24.183V35.41h15.108zm98.662-.15l4.97-4.885 4.635 5.345v11.44h-14.268V25.957h.69v-3.715h.606v-5.107h.806V12.75h.46v4.385h.804v5.107h.605v3.715h.69v9.304zM33.57 39.98l5.006-3.854 2.402-25.748L54.79 8.802V6.875H65.8v1.927h3.202v2.277h5.005l2.402 23.293 3 2.452V47.16H33.57v-7.18zm287.035-27.23v34.41h12.59V20.303h3.356V47.16h12.778V12.75h-28.722zm-71.062 34.41l.16-2.993-.437-.624.484-.6-.023-.423-.46-.5.414-.573.625-.175.07-.324-.578-.324.508-.65.576-.248-.16-.25-.623-.366.415-.83.6-.284-.506-.366-.016-.798.77-.466-.754-1.065.722-.43-.66-1.18.69-.45-.09-.715-.8-.45.722-.498-.046-.666-.784-.45.738-.613-.077-.6-.77-.365.385-.498v-1.28l-.568-.316.676-.583v-.515l-.784-.5.69-.63v-.434l-.77-.598.74-.633v-.35l-.784-.598.753-.715v-.25l-.708-.615.708-.78v-.234l-.753-.615.83-.865-.738-.898.83-.698-.66-.898.69-.65-.57-.898.677-.7-.415-.815.708-.765-.415-.748.676-.766-.26-.648.63-.765-.277-.7.676-.83-.047-.8 1.03-.814 1.245-.283 3.813.416 1.093.2 2.076-.466 3.335-.066 3.213.533 1.57.83.69 1.05.14.715-.032.93 3.49 1.398-.415.782.34.083.476.683-.446.88.46.018.416.666-.493.782.4.017.508.765-.537.697.37.1.415.682-.492.746.338.034.37.7-.462.665.54.698-.416.666.584.763-.523.682.554.715-.446.683.6.732-.523.698.493.732-.385.632.415.682-.522.73.416.682-.4.532 2.352-.49 2.19-.65 2.953.075 6.274 1.172 2.26.848s.67.5.715.6c.045.1.14.35.14.35l-.37.224v.674l.6.548-.3.474v.225l.683.823-.46.316v.333l.63.582-.4.397v.316l.63.65-.37.332v.432l.416.5-.355.365v.45l.507.465-.337.366v.515l.46.415-.414.333v.532l.354.3-.338.432v.4l.615.58-.445.417v.298l.476.516-.32.4v.55h4.965v2.427h-49.03M183.227 27.098l5.05-.08 5.016 1.493 6.224 18.65H176.25l5.12-18.443 1.857-1.618zM18.044 42.964a2.938 2.938 0 0 0 2.938-2.938c0-1.622-1.315-5.455-2.938-5.455-1.622 0-2.937 3.835-2.937 5.457a2.937 2.937 0 0 0 2.937 2.938z" fill-opacity=".3" fill="#A2AFB7"/><path d="M18.044 43.383v3.358" stroke-opacity=".3" stroke="#A2AFB7" stroke-linecap="square"/><path d="M361.31 42.964a2.937 2.937 0 0 0 2.937-2.938c0-1.622-1.315-5.455-2.938-5.455-1.624 0-2.94 3.835-2.94 5.457a2.937 2.937 0 0 0 2.938 2.938z" fill-opacity=".3" fill="#A2AFB7"/><path d="M361.31 43.383v3.358" stroke-opacity=".3" stroke="#A2AFB7" stroke-linecap="square"/><path d="M373.312 43.803c1.298 0 2.35-1.052 2.35-2.35s-1.052-4.364-2.35-4.364-2.35 3.064-2.35 4.362a2.35 2.35 0 0 0 2.35 2.35z" fill-opacity=".3" fill="#A2AFB7"/><path d="M373.312 44.14v2.6" stroke-opacity=".3" stroke="#A2AFB7" stroke-linecap="square"/><path d="M381.06 43.524c1.407 0 2.547-1.14 2.547-2.546s-1.14-4.728-2.546-4.728c-1.404 0-2.544 3.322-2.544 4.728a2.546 2.546 0 0 0 2.546 2.546z" fill-opacity=".3" fill="#A2AFB7"/><path d="M381.06 43.887v2.91" stroke-opacity=".3" stroke="#A2AFB7" stroke-linecap="square"/><path d="M6.742 43.524c1.406 0 2.546-1.14 2.546-2.546s-1.14-4.728-2.546-4.728-2.546 3.322-2.546 4.728a2.546 2.546 0 0 0 2.546 2.546z" fill-opacity=".3" fill="#A2AFB7"/><path d="M6.742 43.887v2.91" stroke-opacity=".3" stroke="#A2AFB7" stroke-linecap="square"/><path d="M2.546 43.524c1.406 0 2.546-1.14 2.546-2.546s-1.14-4.728-2.546-4.728S0 39.572 0 40.978a2.546 2.546 0 0 0 2.546 2.546z" fill-opacity=".3" fill="#A2AFB7"/><path d="M2.546 43.887v2.91" stroke-opacity=".3" stroke="#A2AFB7" stroke-linecap="square"/></g></svg><svg width="82" height="21" viewBox="0 0 82 21" id="general--skyline-small" y="175"><g fill="none"><g fill="#A2AFB7" fill-opacity=".3"><path d="M30.4 3.104a.55.55 0 0 0 .55-.552.55.55 0 0 0-1.103 0c0 .305.247.552.552.552M32.424 21.876H28V16.66h.412v-5.38h.488V6.818h.562V4.653h.45v-1.18h.975v1.18h.45v2.165h.562v4.462h.485v3.97h8.32v6.626h-8.282z"/></g><path d="M18.503 16.754v-2.042h.147l.183-.908.036.353c.045-.015.16-.11.22-.655.073-.697.09-1.236.09-1.236s-.02-.21.234-.54l.11-2.002c.048 0 .128-.088.152-.117.092-.112.11-.254.126-.388.02-.156.034-.31.038-.465 0-.032 0-.347-.005-.347l-.008-.11s.288-.084.224-.366h.12s.163-.323.04-.543h.03s-.03-.138.12-.233l-.06-.142.127-.016.128.015-.06.142c.15.095.12.233.12.233h.03c-.124.22.038.544.038.544h.12c-.064.282.224.365.224.365l-.01.11c-.004 0-.004.313-.004.345.004.155.018.31.038.463.018.133.035.275.127.387.024.03.104.117.152.117l.11 2.003c.255.33.235.54.235.54s.015.538.09 1.235c.06.546.173.64.22.655l.035-.353.183.908h.207v7.1H12v-5.058h6.503zm42.504-.067l2.14-2.102 1.993 2.3v4.923H59v-9.125h.297v-1.598h.26V8.887h.348V7h.198v1.887h.347v2.198h.26v1.598h.297v4.004zm-15.002-3.653L48.18 13l2.16.643 2.68 8.03H43l2.205-7.942.8-.695zM7.77 19.07c.698 0 1.265-.566 1.265-1.265 0-.7-.567-2.35-1.265-2.35-.7 0-1.265 1.65-1.265 2.35 0 .7.566 1.265 1.265 1.265z" fill-opacity=".3" fill="#A2AFB7"/><path d="M7.77 19.25v1.446" stroke-opacity=".3" stroke="#A2AFB7" stroke-linecap="square"/><path d="M72.137 19.07c.698 0 1.265-.566 1.265-1.265 0-.7-.567-2.35-1.265-2.35-.7 0-1.265 1.65-1.265 2.35 0 .7.566 1.265 1.265 1.265z" fill-opacity=".3" fill="#A2AFB7"/><path d="M72.137 19.25v1.446" stroke-opacity=".3" stroke="#A2AFB7" stroke-linecap="square"/><path d="M77.305 19.43a1.01 1.01 0 0 0 1.012-1.01c0-.56-.453-1.88-1.012-1.88-.56 0-1.012 1.32-1.012 1.88 0 .558.453 1.01 1.012 1.01z" fill-opacity=".3" fill="#A2AFB7"/><path d="M77.305 19.576v1.12" stroke-opacity=".3" stroke="#A2AFB7" stroke-linecap="square"/><path d="M80.642 19.31c.606 0 1.096-.49 1.096-1.096 0-.606-.49-2.036-1.096-2.036-.605 0-1.096 1.43-1.096 2.036 0 .605.49 1.096 1.096 1.096z" fill-opacity=".3" fill="#A2AFB7"/><path d="M80.642 19.467v1.252" stroke-opacity=".3" stroke="#A2AFB7" stroke-linecap="square"/><path d="M2.903 19.31C3.51 19.31 4 18.82 4 18.214c0-.606-.49-2.036-1.097-2.036-.605 0-1.096 1.43-1.096 2.036 0 .605.49 1.096 1.096 1.096z" fill-opacity=".3" fill="#A2AFB7"/><path d="M2.903 19.467v1.252" stroke-opacity=".3" stroke="#A2AFB7" stroke-linecap="square"/><path d="M1.096 19.31c.606 0 1.096-.49 1.096-1.096 0-.606-.49-2.036-1.096-2.036C.49 16.178 0 17.608 0 18.214c0 .605.49 1.096 1.096 1.096z" fill-opacity=".3" fill="#A2AFB7"/><path d="M1.096 19.467v1.252" stroke-opacity=".3" stroke="#A2AFB7" stroke-linecap="square"/></g></svg><svg width="186" height="51" viewBox="0 0 186 51" id="general--stad" y="196"><g fill="none"><path d="M170.917 34.653h15.06v15.1h-15.06v-15.1z" fill="#fff"/><path d="M58.99 0H46.924v9.262H38.8v8.066h8.124V37.25c0 8.793 2.01 13.713 11.423 13.713 1.688 0 8.124-.565 9.49-1.21v-7.097c-1.286.08-2.576.243-3.86.243-4.185 0-4.987-1.456-4.987-6.78V17.33h9.088V9.262H58.99V0zM12.964 19.748c0-2.66 1.53-3.63 4.827-3.63 2.736 0 5.31 1.21 5.47 3.952h10.86c-.564-8.95-7.803-12.018-16.33-12.018-7.076 0-17.29 3.71-17.29 12.18 0 9.438 7.16 11.13 14.88 12.986 2.413.565 8.204 1.935 8.204 5.162 0 3.146-2.492 4.52-5.79 4.52-3.542 0-6.355-1.777-6.598-4.924H.014c.16 9.277 8.366 12.987 17.777 12.987 7.48 0 18.26-4.435 18.26-13.31 0-15.163-23.085-11.534-23.085-17.905zm96.782 3.468c0-12.178-9.09-15.164-17.212-15.164-4.346 0-8.607.646-11.906 2.58-3.217 1.857-5.39 5-5.47 10.085H86.74c-.16-1.856 1.208-5.81 5.39-5.81 4.263 0 5.552 3.308 5.552 5.002v3.79c-4.828-.16-10.94.08-15.765 2.177-7.32 3.145-8.607 10.003-8.607 12.826 0 7.903 5.628 12.26 13.19 12.26 5.468 0 9.653-1.938 12.387-6.615h.162c0 1.693.16 3.547.4 5.403h10.86c-.164-1.21-.485-2.42-.565-4.435v-22.1zM90.764 42.9c-3.38 0-5.872-2.423-5.872-5.81 0-6.535 8.606-6.454 12.79-6.372 0 4.76-.245 12.18-6.918 12.18zm68.28-1.214V0H146.98v13.94h-.16c-2.252-3.386-6.595-5.888-10.78-5.888-12.55 0-18.902 10.566-18.902 21.456 0 10.405 5.55 21.455 17.373 21.455 5.23 0 9.736-2.178 12.39-6.938h.16c0 1.937.16 3.79.325 5.728h12.065c-.164-2.662-.405-5.404-.405-8.067zm-20.75 1.214c-7.723 0-8.687-7.18-8.687-13.392 0-6.21.964-13.39 8.686-13.39 6.516 0 8.688 7.825 8.688 13.39 0 5.564-2.17 13.39-8.687 13.39z" fill="#000"/></g></svg><svg width="5" height="9" viewBox="0 0 5 9" id="icons--breadcrumb" y="247"><path d="M.5 8.5l4-4m-4-4l4 4" stroke="#A2AFB7" fill="none"/></svg><svg width="50" height="50" viewBox="0 0 50 50" id="icons--pager-first" y="256"><path d="M32.2 31.222L25.8 25m6.4-6.222L25.8 25m-1.6 6.222L17.8 25m6.4-6.222L17.8 25" stroke="#236ED8" fill="none"/></svg><svg width="50" height="50" viewBox="0 0 50 50" id="icons--pager-first-hover" y="306"><path d="M32.2 31.222L25.8 25m6.4-6.222L25.8 25m-1.6 6.222L17.8 25m6.4-6.222L17.8 25" stroke="#1A1919" fill="none"/></svg><svg width="50" height="50" viewBox="0 0 50 50" id="icons--pager-last" y="356"><path d="M32.2 25.697l-6.05 5.884-.36.35-.697-.717.358-.348L31.485 25l-6.032-5.864-.357-.348.697-.717.36.35 6.05 5.884.01-.01.344.353.353.344-.01.01.01.01-.354.345-.344.353-.01-.01zm-8 0l-6.05 5.884-.36.35-.697-.717.358-.348L23.485 25l-6.032-5.864-.357-.348.697-.717.36.35 6.05 5.884.01-.01.344.353.353.344-.01.01.01.01-.354.345-.344.353-.01-.01z" fill="#236ED8"/></svg><svg width="50" height="50" viewBox="0 0 50 50" id="icons--pager-last-hover" y="406"><path d="M17.8 31.222L24.2 25m-6.4-6.222L24.2 25m1.6 6.222L32.2 25m-6.4-6.222L32.2 25" stroke="#1A1919" fill="none"/></svg><svg width="50" height="50" viewBox="0 0 50 50" id="icons--pager-next" y="456"><path d="M21.8 31.222L28.2 25m-6.4-6.222L28.2 25" stroke="#236ED8" fill="none"/></svg><svg width="50" height="50" viewBox="0 0 50 50" id="icons--pager-next-hover" y="506"><path d="M21.8 31.222L28.2 25m-6.4-6.222L28.2 25" stroke="#1A1919" fill="none"/></svg><svg width="50" height="50" viewBox="0 0 50 50" id="icons--pager-previous" y="556"><path d="M28.2 31.222L21.8 25m6.4-6.222L21.8 25" stroke="#236ED8" fill="none"/></svg><svg width="50" height="50" viewBox="0 0 50 50" id="icons--pager-previous-hover" y="606"><path d="M28.2 31.222L21.8 25m6.4-6.222L21.8 25" stroke="#1A1919" fill="none"/></svg><svg width="40" height="40" viewBox="0 0 40 40" id="icons--search-small" y="656"><path d="M13.646 24.718A9.13 9.13 0 0 1 20.868 10 9.13 9.13 0 0 1 30 19.13c0 5.044-4.088 9.132-9.13 9.132a9.09 9.09 0 0 1-5.183-1.612l-3.293 3.294c-.547.547-1.43.55-1.983-.004a1.407 1.407 0 0 1-.002-1.983l3.24-3.24zm7.223.735a6.32 6.32 0 0 0 0-12.642 6.322 6.322 0 0 0-.002 12.644z" fill="#fff"/></svg><svg width="69" height="69" viewBox="0 0 69 69" id="icons--social-facebook" y="696"><defs><filter x="-50%" y="-50%" width="200%" height="200%" filterUnits="objectBoundingBox" id="pa"><feOffset dy="-4" in="SourceAlpha" result="shadowOffsetInner1"/><feGaussianBlur in="shadowOffsetInner1" result="shadowBlurInner1"/><feComposite in="shadowBlurInner1" in2="SourceAlpha" operator="arithmetic" k2="-1" k3="1" result="shadowInnerInner1"/><feColorMatrix values="0 0 0 0 0.945098039 0 0 0 0 0.498039216 0 0 0 0 0.521568627 0 0 0 0.7 0" in="shadowInnerInner1" result="shadowMatrixInner1"/><feMerge><feMergeNode in="SourceGraphic"/><feMergeNode in="shadowMatrixInner1"/></feMerge></filter></defs><g fill="none"><rect fill="#fff" filter="url(#pa)" width="69" height="69" rx="4"/><path d="M37.974 50V34.998h4.438l.588-5.17h-5.026l.008-2.587c0-1.346.137-2.07 2.212-2.07h2.775V20h-4.44c-5.33 0-7.208 2.508-7.208 6.725v3.104H28V35h3.323v15h6.65z" fill="#D8232A"/></g></svg><svg width="69" height="69" viewBox="0 0 69 69" id="icons--social-facebook-hover" y="765"><defs><filter x="-50%" y="-50%" width="200%" height="200%" filterUnits="objectBoundingBox" id="qa"><feOffset dy="-4" in="SourceAlpha" result="shadowOffsetInner1"/><feGaussianBlur in="shadowOffsetInner1" result="shadowBlurInner1"/><feComposite in="shadowBlurInner1" in2="SourceAlpha" operator="arithmetic" k2="-1" k3="1" result="shadowInnerInner1"/><feColorMatrix values="0 0 0 0 0.945098039 0 0 0 0 0.498039216 0 0 0 0 0.521568627 0 0 0 0.7 0" in="shadowInnerInner1" result="shadowMatrixInner1"/><feMerge><feMergeNode in="SourceGraphic"/><feMergeNode in="shadowMatrixInner1"/></feMerge></filter></defs><g fill="none"><rect fill="#fff" filter="url(#qa)" width="69" height="69" rx="4"/><path d="M37.974 50V34.998h4.438l.588-5.17h-5.026l.008-2.587c0-1.346.137-2.07 2.212-2.07h2.775V20h-4.44c-5.33 0-7.208 2.508-7.208 6.725v3.104H28V35h3.323v15h6.65z" fill="#000"/></g></svg><svg width="69" height="69" viewBox="0 0 69 69" id="icons--social-instagram" y="834"><defs><rect id="ra" width="69" height="69" rx="4"/><filter id="rb" width="200%" height="200%" x="-50%" y="-50%" filterUnits="objectBoundingBox"><feOffset dy="-4" in="SourceAlpha" result="shadowOffsetInner1"/><feComposite in="shadowOffsetInner1" in2="SourceAlpha" operator="arithmetic" k2="-1" k3="1" result="shadowInnerInner1"/><feColorMatrix values="0 0 0 0 0.945098039 0 0 0 0 0.498039216 0 0 0 0 0.521568627 0 0 0 1 0" in="shadowInnerInner1"/></filter></defs><g fill="none"><use fill="#fff" xlink:href="#ra"/><use fill="#000" filter="url(#rb)" xlink:href="#ra"/><path d="M34.494 16.073c-5.023 0-5.652.02-7.625.11-1.97.09-3.315.4-4.49.852a9.08 9.08 0 0 0-3.277 2.113 8.984 8.984 0 0 0-2.133 3.246c-.456 1.166-.77 2.498-.86 4.448-.09 1.955-.11 2.58-.11 7.555 0 4.977.02 5.6.11 7.556.09 1.95.404 3.282.86 4.448a8.995 8.995 0 0 0 2.134 3.248 9.08 9.08 0 0 0 3.276 2.113c1.176.454 2.52.764 4.49.853 1.972.09 2.6.11 7.624.11 5.023 0 5.653-.02 7.625-.11 1.967-.09 3.31-.4 4.49-.852a9.08 9.08 0 0 0 3.273-2.112 8.984 8.984 0 0 0 2.133-3.246c.458-1.165.77-2.497.86-4.447.09-1.955.11-2.58.11-7.556s-.02-5.6-.11-7.556c-.09-1.95-.402-3.282-.86-4.448a8.97 8.97 0 0 0-2.133-3.246 9.084 9.084 0 0 0-3.275-2.113c-1.178-.453-2.522-.763-4.49-.852-1.973-.09-2.603-.11-7.626-.11m0 3.3c4.938 0 5.523.02 7.473.108 1.804.083 2.783.38 3.434.632.864.333 1.48.73 2.127 1.37a5.68 5.68 0 0 1 1.383 2.108c.255.646.556 1.616.638 3.403.09 1.932.108 2.512.108 7.404 0 4.893-.02 5.473-.108 7.405-.082 1.787-.383 2.757-.637 3.403a5.654 5.654 0 0 1-1.38 2.107 5.738 5.738 0 0 1-2.128 1.37c-.65.252-1.63.55-3.433.632-1.95.088-2.535.106-7.474.106-4.938 0-5.523-.018-7.473-.106-1.802-.082-2.782-.38-3.433-.63-.863-.334-1.48-.73-2.127-1.372a5.66 5.66 0 0 1-1.383-2.107c-.253-.646-.555-1.616-.637-3.403-.09-1.932-.108-2.512-.108-7.405 0-4.892.02-5.472.108-7.404.082-1.787.384-2.757.637-3.403a5.67 5.67 0 0 1 1.383-2.107 5.747 5.747 0 0 1 2.127-1.37c.65-.252 1.63-.55 3.434-.632 1.95-.087 2.536-.106 7.474-.106m-.004 21.128c-3.405 0-6.165-2.735-6.165-6.11 0-3.372 2.76-6.107 6.163-6.107 3.405 0 6.165 2.733 6.165 6.106 0 3.374-2.76 6.11-6.166 6.11m0-15.52c-5.245 0-9.497 4.213-9.497 9.41 0 5.198 4.252 9.41 9.497 9.41s9.497-4.212 9.497-9.41c0-5.197-4.25-9.41-9.497-9.41m12.092-.37a2.21 2.21 0 0 1-2.22 2.198 2.21 2.21 0 0 1-2.22-2.2 2.21 2.21 0 0 1 2.22-2.198 2.21 2.21 0 0 1 2.22 2.2" fill="#D8232A"/></g></svg><svg width="69" height="69" viewBox="0 0 69 69" id="icons--social-instagram-hover" y="903"><defs><rect id="sa" width="69" height="69" rx="4"/><filter id="sb" width="200%" height="200%" x="-50%" y="-50%" filterUnits="objectBoundingBox"><feOffset dy="-4" in="SourceAlpha" result="shadowOffsetInner1"/><feComposite in="shadowOffsetInner1" in2="SourceAlpha" operator="arithmetic" k2="-1" k3="1" result="shadowInnerInner1"/><feColorMatrix values="0 0 0 0 0.945098039 0 0 0 0 0.498039216 0 0 0 0 0.521568627 0 0 0 1 0" in="shadowInnerInner1"/></filter></defs><g fill="none"><use fill="#fff" xlink:href="#sa"/><use fill="#000" filter="url(#sb)" xlink:href="#sa"/><path d="M34.494 16.073c-5.023 0-5.652.02-7.625.11-1.97.09-3.315.4-4.49.852a9.08 9.08 0 0 0-3.277 2.113 8.984 8.984 0 0 0-2.133 3.246c-.456 1.166-.77 2.498-.86 4.448-.09 1.955-.11 2.58-.11 7.555 0 4.977.02 5.6.11 7.556.09 1.95.404 3.282.86 4.448a8.995 8.995 0 0 0 2.134 3.248 9.08 9.08 0 0 0 3.276 2.113c1.176.454 2.52.764 4.49.853 1.972.09 2.6.11 7.624.11 5.023 0 5.653-.02 7.625-.11 1.967-.09 3.31-.4 4.49-.852a9.08 9.08 0 0 0 3.273-2.112 8.984 8.984 0 0 0 2.133-3.246c.458-1.165.77-2.497.86-4.447.09-1.955.11-2.58.11-7.556s-.02-5.6-.11-7.556c-.09-1.95-.402-3.282-.86-4.448a8.97 8.97 0 0 0-2.133-3.246 9.084 9.084 0 0 0-3.275-2.113c-1.178-.453-2.522-.763-4.49-.852-1.973-.09-2.603-.11-7.626-.11m0 3.3c4.938 0 5.523.02 7.473.108 1.804.083 2.783.38 3.434.632.864.333 1.48.73 2.127 1.37a5.68 5.68 0 0 1 1.383 2.108c.255.646.556 1.616.638 3.403.09 1.932.108 2.512.108 7.404 0 4.893-.02 5.473-.108 7.405-.082 1.787-.383 2.757-.637 3.403a5.654 5.654 0 0 1-1.38 2.107 5.738 5.738 0 0 1-2.128 1.37c-.65.252-1.63.55-3.433.632-1.95.088-2.535.106-7.474.106-4.938 0-5.523-.018-7.473-.106-1.802-.082-2.782-.38-3.433-.63-.863-.334-1.48-.73-2.127-1.372a5.66 5.66 0 0 1-1.383-2.107c-.253-.646-.555-1.616-.637-3.403-.09-1.932-.108-2.512-.108-7.405 0-4.892.02-5.472.108-7.404.082-1.787.384-2.757.637-3.403a5.67 5.67 0 0 1 1.383-2.107 5.747 5.747 0 0 1 2.127-1.37c.65-.252 1.63-.55 3.434-.632 1.95-.087 2.536-.106 7.474-.106m-.004 21.128c-3.405 0-6.165-2.735-6.165-6.11 0-3.372 2.76-6.107 6.163-6.107 3.405 0 6.165 2.733 6.165 6.106 0 3.374-2.76 6.11-6.166 6.11m0-15.52c-5.245 0-9.497 4.213-9.497 9.41 0 5.198 4.252 9.41 9.497 9.41s9.497-4.212 9.497-9.41c0-5.197-4.25-9.41-9.497-9.41m12.092-.37a2.21 2.21 0 0 1-2.22 2.198 2.21 2.21 0 0 1-2.22-2.2 2.21 2.21 0 0 1 2.22-2.198 2.21 2.21 0 0 1 2.22 2.2" fill="#000"/></g></svg><svg width="69" height="69" viewBox="0 0 69 69" id="icons--social-twitter" y="972"><defs><filter x="-50%" y="-50%" width="200%" height="200%" filterUnits="objectBoundingBox" id="ta"><feOffset dy="-4" in="SourceAlpha" result="shadowOffsetInner1"/><feGaussianBlur in="shadowOffsetInner1" result="shadowBlurInner1"/><feComposite in="shadowBlurInner1" in2="SourceAlpha" operator="arithmetic" k2="-1" k3="1" result="shadowInnerInner1"/><feColorMatrix values="0 0 0 0 0.945098039 0 0 0 0 0.498039216 0 0 0 0 0.521568627 0 0 0 0.7 0" in="shadowInnerInner1" result="shadowMatrixInner1"/><feMerge><feMergeNode in="SourceGraphic"/><feMergeNode in="shadowMatrixInner1"/></feMerge></filter></defs><g fill="none"><rect fill="#fff" filter="url(#ta)" width="69" height="69" rx="4"/><path d="M35.208 27.98l.082 1.298-1.355-.16c-4.932-.608-9.24-2.673-12.898-6.142l-1.788-1.722-.463 1.27c-.975 2.835-.352 5.827 1.68 7.84 1.084 1.112.84 1.27-1.03.61-.65-.213-1.22-.372-1.273-.292-.19.185.46 2.595.976 3.548.705 1.324 2.14 2.622 3.713 3.39l1.327.61-1.57.025c-1.52 0-1.573.027-1.41.583.542 1.72 2.682 3.548 5.067 4.343l1.68.558-1.463.847c-2.168 1.218-4.715 1.907-7.262 1.96-1.22.026-2.222.132-2.222.212 0 .265 3.306 1.747 5.23 2.33 5.77 1.72 12.626.98 17.774-1.96 3.658-2.092 7.316-6.25 9.023-10.274.922-2.145 1.843-6.065 1.843-7.945 0-1.218.08-1.377 1.598-2.833.895-.848 1.735-1.774 1.897-2.04.27-.502.244-.502-1.138-.052-2.303.794-2.628.688-1.49-.503.84-.85 1.842-2.385 1.842-2.835 0-.08-.408.053-.87.29-.486.266-1.57.663-2.383.902l-1.463.45-1.328-.874c-.732-.477-1.76-1.006-2.303-1.165-1.382-.37-3.496-.318-4.742.106-3.386 1.192-5.526 4.263-5.283 7.626z" fill="#D8232A"/></g></svg><svg width="69" height="69" viewBox="0 0 69 69" id="icons--social-twitter-hover" y="1041"><defs><filter x="-50%" y="-50%" width="200%" height="200%" filterUnits="objectBoundingBox" id="ua"><feOffset dy="-4" in="SourceAlpha" result="shadowOffsetInner1"/><feGaussianBlur in="shadowOffsetInner1" result="shadowBlurInner1"/><feComposite in="shadowBlurInner1" in2="SourceAlpha" operator="arithmetic" k2="-1" k3="1" result="shadowInnerInner1"/><feColorMatrix values="0 0 0 0 0.945098039 0 0 0 0 0.498039216 0 0 0 0 0.521568627 0 0 0 0.7 0" in="shadowInnerInner1" result="shadowMatrixInner1"/><feMerge><feMergeNode in="SourceGraphic"/><feMergeNode in="shadowMatrixInner1"/></feMerge></filter></defs><g fill="none"><rect fill="#fff" filter="url(#ua)" width="69" height="69" rx="4"/><path d="M35.208 27.98l.082 1.298-1.355-.16c-4.932-.608-9.24-2.673-12.898-6.142l-1.788-1.722-.463 1.27c-.975 2.835-.352 5.827 1.68 7.84 1.084 1.112.84 1.27-1.03.61-.65-.213-1.22-.372-1.273-.292-.19.185.46 2.595.976 3.548.705 1.324 2.14 2.622 3.713 3.39l1.327.61-1.57.025c-1.52 0-1.573.027-1.41.583.542 1.72 2.682 3.548 5.067 4.343l1.68.558-1.463.847c-2.168 1.218-4.715 1.907-7.262 1.96-1.22.026-2.222.132-2.222.212 0 .265 3.306 1.747 5.23 2.33 5.77 1.72 12.626.98 17.774-1.96 3.658-2.092 7.316-6.25 9.023-10.274.922-2.145 1.843-6.065 1.843-7.945 0-1.218.08-1.377 1.598-2.833.895-.848 1.735-1.774 1.897-2.04.27-.502.244-.502-1.138-.052-2.303.794-2.628.688-1.49-.503.84-.85 1.842-2.385 1.842-2.835 0-.08-.408.053-.87.29-.486.266-1.57.663-2.383.902l-1.463.45-1.328-.874c-.732-.477-1.76-1.006-2.303-1.165-1.382-.37-3.496-.318-4.742.106-3.386 1.192-5.526 4.263-5.283 7.626z" fill="#000"/></g></svg><svg width="17" height="17" viewBox="0 0 17 17" id="icons--vlag-duits" y="1110"><g fill="none"><rect stroke-opacity=".7" stroke="#FFDB00" width="17" height="17" rx="4"/><rect fill="#000" x="1" y="1" width="15" height="5" rx="4"/><path fill="#F11B19" d="M1 6h15v5H1z"/><path fill="#FFDB00" d="M1 11h15v5H1z"/></g></svg><svg width="17" height="17" viewBox="0 0 17 17" id="icons--vlag-engels" y="1127"><g fill="none"><rect fill="#00247D" x="1" y="1" width="15" height="15" rx="3"/><path d="M16 13.927V3.073l-5 2.5V1H6v4.573l-5-2.5v10.854l5-2.5V16h5v-4.572l5 2.5" fill="#fff"/><path d="M11.5 10l4.5 2.25v-1.118L13.736 10H16V7h-4.5L16 4.75V3.632l-6 3V1H7v6H5.5L1 4.75v1.118L3.264 7H1v3h4.5L1 12.25v1.118l6-3V16h3v-6h1.5" fill="#CF132B"/><rect stroke-opacity=".7" stroke="#BEC7DD" width="17" height="17" rx="4"/></g></svg></svg>